<svg xmlns="http://www.w3.org/2000/svg" viewBox="0 0 22.13 19.650000000000002" x="0px" y="0px"><title>Ресурс 26</title><g data-name="Слой 2"><g data-name="Слой 1"><path d="M7.16,0a3.7,3.7,0,0,0-3.6,2.86H.85a.85.85,0,0,0,0,1.7H3.56a3.7,3.7,0,0,0,7.2,0H21.28a.85.85,0,0,0,0-1.7H10.76A3.7,3.7,0,0,0,7.16,0Zm0,5.72a2,2,0,1,1,2-2,2,2,0,0,1-2,2Z"/><path d="M15,8.3a3.7,3.7,0,0,0-3.6,2.86H.85a.85.85,0,0,0,0,1.7H11.37a3.7,3.7,0,0,0,7.2,0h2.71a.85.85,0,0,0,0-1.7H18.57A3.7,3.7,0,0,0,15,8.3ZM15,14a2,2,0,1,1,2-2,2,2,0,0,1-2,2Z"/></g></g></svg>