<svg xmlns="http://www.w3.org/2000/svg" xmlns:xlink="http://www.w3.org/1999/xlink" version="1.1" x="0px" y="0px" viewBox="0 0 100 125" style="enable-background:new 0 0 100 100;" xml:space="preserve"><g><path d="M49.99918,47.68863c-1.0562,0-1.91086,0.85559-1.91086,1.91086v33.20586c0,1.05527,0.85466,1.91087,1.91086,1.91087   s1.91086-0.8556,1.91086-1.91087V49.59949C51.91005,48.54423,51.05538,47.68863,49.99918,47.68863z"/><path d="M64.9539,47.75768c-1.04127-0.06625-1.96124,0.7343-2.02655,1.7877l-2.07694,33.14056   c-0.06531,1.0534,0.73523,1.9603,1.7877,2.02655c0.04105,0.0028,0.08024,0.00374,0.1213,0.00374   c1.00022,0,1.84182-0.77909,1.90526-1.79144l2.07694-33.14055C66.80692,48.73083,66.00637,47.82393,64.9539,47.75768z"/><path d="M50.00012,2.5C29.17589,2.5,8.16365,8.20354,8.16365,20.94545v8.5226c0,2.17724,0.66805,5.20087,3.52292,8.17189   c1.28199,8.95109,5.87324,41.01819,6.45382,45.28345C19.60549,93.68248,36.21869,97.5,50.00012,97.5   c13.78166,0,30.39509-3.81752,31.85949-14.57661c0.58058-4.26527,5.17183-36.33236,6.45382-45.28345   c2.85486-2.97091,3.52292-5.99465,3.52292-8.17189v-8.5226C91.83635,8.20354,70.82411,2.5,50.00012,2.5z M85.43221,29.46805   c0,1.40597-0.73524,2.75118-2.03822,4.00553c-0.11686,0.05225-0.24072,0.08001-0.34849,0.15792   c-5.74937,4.12776-18.71113,6.79531-33.02579,6.79531c-0.00187,0-0.0056,0-0.00747,0   c-14.31839,0-27.28574-2.66755-33.03326-6.79625c-0.12433-0.09004-0.26591-0.12643-0.40214-0.18229   c-1.28596-1.247-2.00906-2.58393-2.00906-3.98022v-2.79736c6.81187,5.01718,21.43933,7.67179,35.43326,7.67179   c13.99136,0,28.61719-2.65368,35.43116-7.66899V29.46805z M50.00012,8.90414c19.52077,0,35.34765,5.3652,35.4251,11.99315   c-1.20922,4.2115-14.44529,9.62346-35.42417,9.62346c-20.99661,0-34.2364-5.422-35.4244-9.63513   C14.67252,14.26327,30.49077,8.90414,50.00012,8.90414z M75.51402,82.05963c-0.68321,5.01939-11.42294,9.03623-25.5139,9.03623   s-24.83069-4.01684-25.51414-9.03623c-0.54886-4.03095-4.59357-32.2965-6.16621-43.27754   c7.19838,3.41643,18.80234,5.46643,31.69248,5.46643c0.00187,0,0.00373,0,0.00747,0c12.86985,0,24.45817-2.04428,31.65889-5.45314   C80.10457,49.78575,76.06265,78.03019,75.51402,82.05963z"/><path d="M39.07331,22.72242c0.2314,0.0905,0.46839,0.13436,0.70351,0.13436c0.76136,0,1.4798-0.45812,1.7765-1.20922   l1.02448-2.59105h7.42138h7.42324l1.02448,2.59105c0.29671,0.75109,1.01514,1.20922,1.7765,1.20922   c0.23513,0,0.47211-0.04385,0.70351-0.13436c0.97969-0.38814,1.46114-1.49846,1.07299-2.48001l-1.50219-3.79933   c-0.28737-0.72964-0.99275-1.20828-1.7765-1.20828h-8.72203h-8.72017c-0.78375,0-1.48912,0.47865-1.7765,1.20828l-1.50219,3.79933   C37.61218,21.22396,38.09363,22.33428,39.07331,22.72242z"/><path d="M35.04633,47.75768c-1.05246,0.06625-1.85301,0.97316-1.7877,2.02656l2.07694,33.14055   c0.06345,1.01234,0.90505,1.79144,1.90526,1.79144c0.04105,0,0.08024-0.00094,0.1213-0.00374   c1.05247-0.06625,1.85301-0.97315,1.7877-2.02655l-2.07694-33.14056C37.00571,48.49198,36.08013,47.68863,35.04633,47.75768z"/></g></svg>