<svg xmlns="http://www.w3.org/2000/svg" xmlns:xlink="http://www.w3.org/1999/xlink" viewBox="0 0 100 125" version="1.1" x="0px" y="0px"><title>gift</title><desc>Created with Sketch.</desc><g stroke="none" stroke-width="1" fill="none" fill-rule="evenodd"><path d="M21.5,43.5 L78.5,43.5 L78.5,33.5 L21.5,33.5 L21.5,43.5 Z M20,46.5 C19.1715729,46.5 18.5,45.8284271 18.5,45 L18.5,32 C18.5,31.1715729 19.1715729,30.5 20,30.5 L80,30.5 C80.8284271,30.5 81.5,31.1715729 81.5,32 L81.5,45 C81.5,45.8284271 80.8284271,46.5 80,46.5 L20,46.5 Z" fill="#000000" fill-rule="nonzero"/><path d="M74.5,75.5 L74.5,46 C74.5,45.1715729 75.1715729,44.5 76,44.5 C76.8284271,44.5 77.5,45.1715729 77.5,46 L77.5,77 C77.5,77.8284271 76.8284271,78.5 76,78.5 L24,78.5 C23.1715729,78.5 22.5,77.8284271 22.5,77 L22.5,46 C22.5,45.1715729 23.1715729,44.5 24,44.5 C24.8284271,44.5 25.5,45.1715729 25.5,46 L25.5,75.5 L74.5,75.5 Z" fill="#000000" fill-rule="nonzero"/><path d="M54.5,36.8514707 L45.2824248,46.0690459 C45.0871627,46.2643081 44.7705802,46.2643081 44.575318,46.0690459 C44.3800559,45.8737838 44.3800559,45.5572013 44.575318,45.3619391 L54.5,35.4372572 L54.5,32 C54.5,31.1715729 55.1715729,30.5 56,30.5 C56.8284271,30.5 57.5,31.1715729 57.5,32 L57.5,77 C57.5,77.8284271 56.8284271,78.5 56,78.5 C55.1715729,78.5 54.5,77.8284271 54.5,77 L54.5,72.8514707 L50.3535534,76.9979173 C50.1582912,77.1931795 49.8417088,77.1931795 49.6464466,76.9979173 C49.4511845,76.8026552 49.4511845,76.4860727 49.6464466,76.2908106 L54.5,71.4372572 L54.5,69.8514707 L46.9979173,77.3535534 C46.8026552,77.5488155 46.4860727,77.5488155 46.2908106,77.3535534 C46.0955484,77.1582912 46.0955484,76.8417088 46.2908106,76.6464466 L54.5,68.4372572 L54.5,66.8514707 L44.3535534,76.9979173 C44.1582912,77.1931795 43.8417088,77.1931795 43.6464466,76.9979173 C43.4511845,76.8026552 43.4511845,76.4860727 43.6464466,76.2908106 L54.5,65.4372572 L54.5,63.8514707 L44.3535534,73.9979173 C44.1582912,74.1931795 43.8417088,74.1931795 43.6464466,73.9979173 C43.4511845,73.8026552 43.4511845,73.4860727 43.6464466,73.2908106 L54.5,62.4372572 L54.5,60.8514707 L44.3535534,70.9979173 C44.1582912,71.1931795 43.8417088,71.1931795 43.6464466,70.9979173 C43.4511845,70.8026552 43.4511845,70.4860727 43.6464466,70.2908106 L54.5,59.4372572 L54.5,57.8514707 L44.3535534,67.9979173 C44.1582912,68.1931795 43.8417088,68.1931795 43.6464466,67.9979173 C43.4511845,67.8026552 43.4511845,67.4860727 43.6464466,67.2908106 L54.5,56.4372572 L54.5,54.8514707 L44.3535534,64.9979173 C44.1582912,65.1931795 43.8417088,65.1931795 43.6464466,64.9979173 C43.4511845,64.8026552 43.4511845,64.4860727 43.6464466,64.2908106 L54.5,53.4372572 L54.5,51.8514707 L44.3535534,61.9979173 C44.1582912,62.1931795 43.8417088,62.1931795 43.6464466,61.9979173 C43.4511845,61.8026552 43.4511845,61.4860727 43.6464466,61.2908106 L54.5,50.4372572 L54.5,48.8514707 L44.3535534,58.9979173 C44.1582912,59.1931795 43.8417088,59.1931795 43.6464466,58.9979173 C43.4511845,58.8026552 43.4511845,58.4860727 43.6464466,58.2908106 L54.5,47.4372572 L54.5,45.8514707 L44.3535534,55.9979173 C44.1582912,56.1931795 43.8417088,56.1931795 43.6464466,55.9979173 C43.4511845,55.8026552 43.4511845,55.4860727 43.6464466,55.2908106 L54.5,44.4372572 L54.5,42.8514707 L44.3535534,52.9979173 C44.1582912,53.1931795 43.8417088,53.1931795 43.6464466,52.9979173 C43.4511845,52.8026552 43.4511845,52.4860727 43.6464466,52.2908106 L54.5,41.4372572 L54.5,39.8514707 L44.3535534,49.9979173 C44.1582912,50.1931795 43.8417088,50.1931795 43.6464466,49.9979173 C43.4511845,49.8026552 43.4511845,49.4860727 43.6464466,49.2908106 L54.5,38.4372572 L54.5,36.8514707 Z" fill="#000000" fill-rule="nonzero"/><path d="M45.5,35.4372572 L49.4580329,31.4792243 C49.653295,31.2839621 49.9698775,31.2839621 50.1651397,31.4792243 C50.3604018,31.6744864 50.3604018,31.9910689 50.1651397,32.1863311 L45.5,36.8514707 L45.5,38.4372572 L52.1464466,31.7908106 C52.3417088,31.5955484 52.6582912,31.5955484 52.8535534,31.7908106 C53.0488155,31.9860727 53.0488155,32.3026552 52.8535534,32.4979173 L45.5,39.8514707 L45.5,41.4372572 L54.7908106,32.1464466 C54.9860727,31.9511845 55.3026552,31.9511845 55.4979173,32.1464466 C55.6931795,32.3417088 55.6931795,32.6582912 55.4979173,32.8535534 L45.5,42.8514707 L45.5,77 C45.5,77.8284271 44.8284271,78.5 44,78.5 C43.1715729,78.5 42.5,77.8284271 42.5,77 L42.5,32 C42.5,31.1715729 43.1715729,30.5 44,30.5 C44.8284271,30.5 45.5,31.1715729 45.5,32 L45.5,35.4372572 Z" fill="#000000" fill-rule="nonzero"/><path d="M47.9148163,30.8803318 L46.1213165,33.2851933 C41.4565863,29.8063265 38.3094908,28.2300163 37.218321,28.4741016 C35.6926096,28.8153902 35.1155176,29.9639917 35.6217436,31.4091569 L32.7904241,32.4009381 C31.7089547,29.313578 33.2266528,26.2928629 36.5634314,25.5464542 C38.8833,25.0275195 42.4876646,26.8328657 47.9148163,30.8803318 Z" fill="#000000" fill-rule="nonzero"/><path d="M51.1410356,30.8365797 L48.8589644,32.7839244 C42.8736007,25.7697444 42.0464115,24.8728565 40.117528,23.6204701 C39.2090441,23.0306092 38.3471404,22.6888916 37.424469,22.5519499 C33.1077448,21.9112673 30.2621289,27.9158672 33.172736,30.964116 L31.0029948,33.035884 C26.1679573,27.9721992 30.6504017,18.5136895 37.8649006,19.584456 C39.2302183,19.7870947 40.4944764,20.2883331 41.7512202,21.1043123 C44.0501288,22.5969488 44.8503493,23.4645957 51.1410356,30.8365797 Z" fill="#000000" fill-rule="nonzero"/><path d="M52.4455631,30.8803318 C57.8727148,26.8328657 61.4770794,25.0275195 63.7969479,25.5464542 C67.1337266,26.2928629 68.6514247,29.313578 67.5699552,32.4009381 L64.7386357,31.4091569 C65.2448618,29.9639917 64.6677698,28.8153902 63.1420583,28.4741016 C62.0508885,28.2300163 58.903793,29.8063265 54.2390628,33.2851933 L52.4455631,30.8803318 Z" fill="#000000" fill-rule="nonzero"/><path d="M48.9866773,30.8365797 C55.2773636,23.4645957 56.0775841,22.5969488 58.3764927,21.1043123 C59.6332365,20.2883331 60.8974946,19.7870947 62.2628123,19.584456 C69.4773111,18.5136895 73.9597556,27.9721992 69.1247181,33.035884 L66.9549768,30.964116 C69.8655839,27.9158672 67.0199681,21.9112673 62.7032438,22.5519499 C61.7805725,22.6888916 60.9186688,23.0306092 60.0101848,23.6204701 C58.0813013,24.8728565 57.2541122,25.7697444 51.2687484,32.7839244 L48.9866773,30.8365797 Z" fill="#000000" fill-rule="nonzero"/><polygon fill="#000000" fill-rule="nonzero" points="37.5 20.7928932 38.2071068 21.5 30.9892578 28.717849 30.282151 28.0107422"/><polygon fill="#000000" fill-rule="nonzero" points="63.5 20.7928932 64.2071068 21.5 55.6276814 30.0794254 54.9205746 29.3723186"/><polygon fill="#000000" fill-rule="nonzero" points="66.5 20.7928932 67.2071068 21.5 60 28.7071068 59.2928932 28"/><polygon fill="#000000" fill-rule="nonzero" points="68 22.2928932 68.7071068 23 63.6142578 28.092849 62.907151 27.3857422"/><polygon fill="#000000" fill-rule="nonzero" points="69.5 23.7928932 70.2071068 24.5 66 28.7071068 65.2928932 28"/><polygon fill="#000000" fill-rule="nonzero" points="39.6082764 21.6846169 40.3153831 22.3917236 34 28.7071068 33.2928932 28"/><polygon fill="#000000" fill-rule="nonzero" points="41.8017578 22.4911354 42.5088646 23.1982422 37.6495361 28.0575706 36.9424294 27.3504639"/><polygon fill="#000000" fill-rule="nonzero" points="43.5 23.7928932 44.2071068 24.5 40.6495361 28.0575706 39.9424294 27.3504639"/><polygon fill="#000000" fill-rule="nonzero" points="45.5 24.7928932 46.2071068 25.5 42 29.7071068 41.2928932 29"/><polygon fill="#000000" fill-rule="nonzero" points="46.6142578 26.6786354 47.3213646 27.3857422 44 30.7071068 43.2928932 30"/></g></svg>