<svg xmlns="http://www.w3.org/2000/svg" xmlns:xlink="http://www.w3.org/1999/xlink" version="1.1" x="0px" y="0px" viewBox="0 0 2048 2560" style="enable-background:new 0 0 2048 2048;" xml:space="preserve"><g><path d="M1596.8,677.9H451.2c-6.7,37.3-24.8,70.8-50.6,96.6c-25.8,25.8-59.2,43.9-96.6,50.6v397.9c37.3,6.7,70.8,24.8,96.6,50.6   c25.8,25.8,43.9,59.2,50.6,96.6h1145.7c6.7-37.3,24.8-70.8,50.6-96.6c25.8-25.8,59.2-43.9,96.6-50.6V825.1   c-37.3-6.7-70.8-24.8-96.6-50.6C1621.6,748.7,1603.5,715.2,1596.8,677.9L1596.8,677.9z M422,613.9h1204c17.7,0,32,14.3,32,32   c0,32.4,13.3,61.9,34.7,83.3c21.4,21.4,50.9,34.7,83.3,34.7c17.7,0,32,14.3,32,32v456.2c0,17.7-14.3,32-32,32   c-32.4,0-61.9,13.3-83.3,34.7c-21.4,21.4-34.7,50.9-34.7,83.3c0,17.7-14.3,32-32,32H422c-17.7,0-32-14.3-32-32   c0-32.4-13.3-61.9-34.7-83.3c-21.4-21.4-50.9-34.7-83.3-34.7c-17.7,0-32-14.3-32-32V795.9c0-17.7,14.3-32,32-32   c32.4,0,61.9-13.3,83.3-34.7c21.4-21.4,34.7-50.9,34.7-83.3C390,628.2,404.3,613.9,422,613.9L422,613.9z"/><path d="M720,658.9c0-13.8-16.3-21.1-26.6-12c-3.4,3-5.4,7.4-5.4,12v64c0,13.8,16.3,21.1,26.6,12c3.4-3,5.4-7.4,5.4-12V658.9   L720,658.9z M688,1362.9c0,13.8,16.3,21.1,26.6,12c3.4-3,5.4-7.4,5.4-12v-64c0-13.8-16.3-21.1-26.6-12c-3.4,3-5.4,7.4-5.4,12   V1362.9z M688,1202.9c0,13.8,16.3,21.1,26.6,12c3.4-3,5.4-7.4,5.4-12v-64c0-13.8-16.3-21.1-26.6-12c-3.4,3-5.4,7.4-5.4,12V1202.9z    M688,1042.9c0,13.8,16.3,21.1,26.6,12c3.4-3,5.4-7.4,5.4-12v-64c0-13.8-16.3-21.1-26.6-12c-3.4,3-5.4,7.4-5.4,12V1042.9z    M688,882.9c0,13.8,16.3,21.1,26.6,12c3.4-3,5.4-7.4,5.4-12v-64c0-13.8-16.3-21.1-26.6-12c-3.4,3-5.4,7.4-5.4,12V882.9L688,882.9z"/><g><path d="M530.2,820.4l-5.1,15.7l-11.4-3.7l11.4,3.7c-1.8,5.5-7,8.8-12.5,8.3l-15.4,0l13.3,9.7l0,0    c4.6,3.3,6.1,9.2,4.1,14.2l-4.9,14.9l13.3-9.7l0,0c4.6-3.4,10.9-3,15,0.7l12.4,9l-5.1-15.7l0,0c-1.7-5.3,0.4-11,5-13.9l12.8-9.2    l-16.5,0v0c-5.7,0-10.5-3.9-11.7-9.3L530.2,820.4L530.2,820.4z M505,820.4l13.5-41.7c0.9-3.9,3.9-7.3,8-8.7    c6.3-2,13.1,1.4,15.1,7.7l-11.4,3.7l11.4-3.7l13.8,42.6l43.7-0.1c4.1-0.4,8.2,1.4,10.8,4.9c3.9,5.4,2.7,12.9-2.7,16.8l0,0    l-36.3,26.3l13.7,41.9c1.5,3.7,1.1,8.1-1.5,11.5c-3.9,5.4-11.4,6.5-16.8,2.6l0,0l-36.2-26.4l-35.3,25.7c-3.1,2.7-7.5,3.8-11.7,2.4    c-6.3-2.1-9.7-8.8-7.7-15.1l0,0l13.9-42.6l-35.8-25.9 M460.2,820.3l44.8,0.1 M448.2,832.3c0-6.6,5.4-12,12-12v0"/><path d="M530.2,998.6l-5.1,15.7l-11.4-3.7l11.4,3.7c-1.8,5.5-7,8.8-12.5,8.3l-15.4,0l13.3,9.7l0,0    c4.6,3.3,6.1,9.2,4.1,14.2l-4.9,14.9l13.3-9.7l0,0c4.6-3.4,10.9-3,15,0.7l12.4,9l-5.1-15.7l0,0c-1.7-5.3,0.4-11,5-13.9l12.8-9.2    l-16.5,0v0c-5.7,0-10.5-3.9-11.7-9.3L530.2,998.6L530.2,998.6z M505,998.6l13.5-41.7c0.9-3.9,3.9-7.3,8-8.7    c6.3-2,13.1,1.4,15.1,7.7l-11.4,3.7l11.4-3.7l13.8,42.6l43.7-0.1c4.1-0.4,8.2,1.4,10.8,4.9c3.9,5.4,2.7,12.9-2.7,16.8l0,0    l-36.3,26.3l13.7,41.9c1.5,3.7,1.1,8.1-1.5,11.5c-3.9,5.4-11.4,6.5-16.8,2.6l0,0l-36.2-26.4l-35.3,25.7c-3.1,2.7-7.5,3.8-11.7,2.4    c-6.3-2.1-9.7-8.8-7.7-15.1l0,0l13.9-42.6l-35.8-25.9 M460.2,998.6l44.8,0.1 M448.2,1010.5c0-6.6,5.4-12,12-12v0"/><path d="M530.2,1172.4l-5.1,15.7l-11.4-3.7l11.4,3.7c-1.8,5.5-7,8.8-12.5,8.3l-15.4,0l13.3,9.7l0,0    c4.6,3.3,6.1,9.2,4.1,14.2l-4.9,14.9l13.3-9.7l0,0c4.6-3.4,10.9-3,15,0.7l12.4,9l-5.1-15.7l0,0c-1.7-5.3,0.4-11,5-13.9l12.8-9.2    l-16.5,0v0c-5.7,0-10.5-3.9-11.7-9.3L530.2,1172.4L530.2,1172.4z M505,1172.4l13.5-41.7c0.9-3.9,3.9-7.3,8-8.7    c6.3-2,13.1,1.4,15.1,7.7l-11.4,3.7l11.4-3.7l13.8,42.6l43.7-0.1c4.1-0.4,8.2,1.4,10.8,4.9c3.9,5.4,2.7,12.9-2.7,16.8l0,0    l-36.3,26.3l13.7,41.9c1.5,3.7,1.1,8.1-1.5,11.5c-3.9,5.4-11.4,6.5-16.8,2.6l0,0l-36.2-26.4l-35.3,25.7c-3.1,2.7-7.5,3.8-11.7,2.4    c-6.3-2.1-9.7-8.8-7.7-15.1l0,0l13.9-42.6l-35.8-25.9 M460.2,1172.3l44.8,0.1 M448.2,1184.3c0-6.6,5.4-12,12-12v0"/></g></g></svg>