<svg xmlns="http://www.w3.org/2000/svg" width="15.243" height="14.779" viewBox="0 0 15.243 14.779">
  <g transform="translate(0)">
    <path d="M34.942,37.951h.048a.713.713,0,0,0,.657-.753L35.2,30.754a.724.724,0,0,0-.753-.657.713.713,0,0,0-.657.753l.449,6.444A.714.714,0,0,0,34.942,37.951Z" transform="translate(-28.771 -25.897)" fill="#464749"/>
    <path d="M55.244,37.851h.048A.714.714,0,0,0,56,37.194l.449-6.444A.713.713,0,0,0,55.789,30a.724.724,0,0,0-.753.657L54.587,37.1A.684.684,0,0,0,55.244,37.851Z" transform="translate(-46.236 -25.813)" fill="#464749"/>
    <path d="M17.022,5.262H12.935L12.181,4.2a.752.752,0,0,0-.593-.3H8.639a.708.708,0,0,0-.593.3L7.293,5.262H3.205a.705.705,0,1,0,0,1.411h.609L5.033,16.851A2.08,2.08,0,0,0,7.1,18.679h6.043a2.08,2.08,0,0,0,2.068-1.827L16.429,6.673h.609a.712.712,0,0,0,.705-.705A.737.737,0,0,0,17.022,5.262ZM13.8,16.675a.661.661,0,0,1-.657.593H7.1a.661.661,0,0,1-.657-.593l-1.2-10H15Z" transform="translate(-2.5 -3.9)" fill="#464749"/>
  </g>
</svg>